<?xml version="1.0" standalone="no"?>
<!DOCTYPE svg PUBLIC "-//W3C//DTD SVG 20010904//EN" "http://www.w3.org/TR/2001/REC-SVG-20010904/DTD/svg10.dtd">
<svg version="1.0" xmlns="http://www.w3.org/2000/svg" width="800" height="800" title="AKINSOFT" viewBox="0 0 1501.000000 1501.000000"
preserveAspectRatio="xMidYMid meet" class="akinsoft-logo">
                        <g id="Group 1" transform="translate(0.000000,1501.000000) scale(0.100000,-0.100000)" fill="#fff">
<path d="M7115 14863 c-38 -2 -155 -10 -260 -19 -1581 -129 -3075 -770 -4275
-1833 -132 -117 -469 -452 -594 -591 -976 -1086 -1610 -2428 -1820 -3855 -54
-368 -76 -681 -76 -1080 0 -502 41 -938 131 -1405 40 -206 109 -493 121 -505
7 -7 8 -3 4 10 -32 109 -105 562 -130 805 -41 403 -46 952 -11 1330 137 1492
724 2856 1722 4002 154 178 523 542 707 698 636 541 1348 964 2101 1248 588
221 1167 353 1830 419 257 25 972 25 1230 0 718 -71 1338 -219 1976 -472 1305
-519 2443 -1442 3238 -2628 191 -286 445 -749 581 -1062 531 -1219 706 -2532
514 -3840 -268 -1822 -1250 -3463 -2739 -4581 -1111 -834 -2430 -1308 -3849
-1384 -104 -5 -192 -13 -195 -16 -10 -11 552 5 749 21 739 61 1430 221 2110
488 1188 466 2251 1250 3053 2250 1285 1603 1839 3642 1546 5691 -305 2139
-1558 4053 -3404 5203 -1055 658 -2238 1031 -3499 1103 -161 9 -581 11 -761 3z"/>
<path d="M7055 12783 c-59 -8 -141 -35 -205 -69 -143 -74 -5 141 -2182 -3424
-1484 -2432 -1999 -3283 -2017 -3335 -35 -100 -34 -232 1 -332 65 -184 218
-312 408 -344 30 -5 136 -9 235 -9 200 0 281 13 366 55 123 63 21 -102 1954
3170 984 1667 1808 3052 1830 3079 57 70 163 140 265 173 l85 28 980 0 981 0
49 -26 c30 -15 62 -42 80 -68 l30 -43 3 -902 2 -902 156 -17 c85 -10 209 -29
275 -43 129 -27 361 -98 453 -139 31 -14 59 -25 61 -25 3 0 4 611 3 1358 l-3
1357 -23 67 c-49 144 -163 273 -301 339 -124 60 -65 58 -1836 57 -891 0 -1633
-3 -1650 -5z"/>
<path d="M7827 11506 c-58 -21 -110 -59 -139 -102 -80 -118 -3214 -5428 -3231
-5474 -29 -80 -28 -242 2 -324 54 -150 168 -260 321 -312 48 -17 88 -19 330
-19 265 0 277 1 333 23 126 51 38 -87 1568 2447 774 1283 1415 2334 1433 2351
46 44 96 51 154 22 26 -13 57 -38 69 -57 22 -33 23 -43 23 -252 0 -121 2 -219
5 -219 3 0 48 18 101 40 202 84 427 145 644 176 116 16 148 31 194 87 l31 39
0 647 0 646 -32 65 c-41 83 -110 152 -193 193 l-65 32 -755 2 c-618 2 -762 0
-793 -11z"/>
<path d="M9825 9693 c-185 -7 -396 -42 -427 -70 -103 -93 291 -319 753 -432
229 -56 300 -65 504 -65 178 -1 193 0 236 22 48 23 74 62 67 99 -3 16 -13 18
-103 15 -117 -4 -227 16 -405 73 -207 67 -417 171 -506 250 -35 32 -36 35 -14
30 49 -10 215 -35 233 -35 79 0 -130 101 -233 112 -19 2 -66 3 -105 1z"/>
<path d="M8824 9412 c-56 -32 -144 -88 -196 -125 -102 -71 -125 -103 -114
-158 51 -258 1013 -676 1896 -823 261 -44 346 -51 605 -51 219 0 262 3 349 22
106 23 221 73 274 117 147 125 112 354 -87 576 -44 49 -56 39 -17 -13 66 -89
85 -183 47 -240 -118 -179 -660 -163 -1363 39 -322 92 -671 230 -918 361 -117
62 -233 133 -227 139 2 2 111 -9 243 -25 291 -36 324 -39 324 -29 0 14 -111
80 -228 135 -161 77 -309 124 -407 129 l-80 5 -101 -59z"/>
<path d="M8155 8827 c-54 -39 -275 -415 -275 -467 0 -72 114 -196 286 -309
684 -452 2160 -824 3054 -771 585 35 871 212 870 539 -1 64 -20 185 -32 197
-2 2 -4 -29 -4 -69 1 -116 -48 -188 -165 -247 -446 -226 -1844 33 -2953 546
-143 66 -389 195 -441 230 -18 13 -18 14 9 14 16 0 116 -9 222 -20 106 -12
235 -19 286 -18 l93 3 -59 47 c-125 99 -393 233 -593 299 -118 38 -264 51
-298 26z"/>
<path d="M7751 7868 c-31 -16 -37 -38 -50 -187 -17 -185 -14 -318 8 -366 44
-97 225 -225 541 -383 642 -321 1473 -572 2215 -669 202 -26 687 -26 830 1
291 53 491 153 610 304 25 31 57 80 70 109 23 48 95 283 95 308 0 5 -14 -18
-30 -51 -69 -141 -231 -229 -500 -270 -139 -22 -494 -24 -670 -5 -863 94
-1804 369 -2589 759 l-155 77 44 3 c25 2 111 -1 193 -7 197 -15 370 -14 361 0
-27 45 -344 216 -543 294 -191 74 -379 110 -430 83z"/>
<path d="M7806 6867 c-15 -11 -18 -21 -13 -45 11 -55 78 -224 136 -342 45 -92
69 -128 121 -180 277 -279 1152 -591 1965 -701 220 -30 598 -37 772 -15 218
28 388 83 510 167 54 37 236 210 228 217 -2 3 -20 -9 -39 -26 -109 -95 -345
-152 -636 -152 -670 0 -1747 281 -2499 652 l-156 76 180 1 c99 1 204 4 233 8
50 6 52 7 36 24 -58 65 -365 223 -547 284 -129 43 -258 58 -291 32z"/>
<path d="M8298 6033 c-12 -3 -18 -14 -18 -35 0 -26 14 -44 78 -106 88 -85 229
-200 317 -259 202 -136 595 -268 970 -328 133 -22 475 -31 596 -16 52 6 137
22 189 36 70 18 82 23 45 19 -179 -19 -252 -22 -379 -13 -373 26 -846 149
-1276 330 -66 28 -117 55 -114 60 3 5 38 9 77 9 141 0 154 20 59 90 -167 123
-459 238 -544 213z"/>
<path d="M7703 4845 c-149 -27 -276 -113 -330 -224 -25 -50 -28 -67 -28 -161
0 -131 21 -184 101 -260 61 -58 142 -99 315 -158 137 -47 194 -75 203 -97 14
-36 5 -64 -28 -93 -82 -72 -295 -45 -449 55 -25 16 -30 16 -54 3 -101 -57
-123 -195 -46 -281 79 -88 199 -123 418 -123 229 0 351 38 456 143 75 75 99
139 99 261 0 125 -24 186 -104 265 -74 72 -174 124 -357 184 -144 47 -179 73
-163 118 5 15 26 35 49 47 78 41 273 23 386 -35 l37 -18 36 39 c94 105 60 242
-76 300 -110 47 -314 63 -465 35z"/>
<path d="M8962 4840 c-119 -31 -198 -76 -283 -160 -139 -137 -196 -303 -186
-540 6 -145 33 -246 94 -349 79 -132 239 -243 403 -277 115 -24 309 -15 417
20 161 52 287 161 357 310 48 100 66 193 66 336 0 143 -18 236 -65 335 -80
165 -219 276 -411 325 -105 27 -289 27 -392 0z m327 -318 c59 -29 111 -93 132
-160 6 -20 14 -92 16 -159 4 -106 2 -132 -17 -194 -39 -130 -130 -201 -259
-201 -170 0 -267 117 -279 334 -5 112 9 200 43 268 70 137 222 183 364 112z"/>
<path d="M3040 4815 l-75 -24 -54 -148 c-88 -244 -248 -730 -281 -857 -35
-132 -34 -167 6 -215 13 -16 41 -35 62 -42 48 -16 187 -17 233 -1 l37 13 32
129 32 130 187 0 187 0 18 -72 c39 -159 73 -198 182 -213 85 -11 227 25 241
62 8 19 -169 651 -283 1011 -55 174 -76 203 -171 232 -96 30 -252 27 -353 -5z
m249 -515 c28 -102 51 -189 51 -193 0 -4 -54 -7 -121 -7 -120 0 -120 0 -114
23 31 112 120 376 125 370 4 -5 30 -91 59 -193z"/>
<path d="M4050 4831 l-35 -6 0 -600 c0 -578 1 -601 20 -632 29 -49 75 -66 175
-66 47 -1 106 3 133 7 l47 7 0 230 0 230 159 -183 c175 -203 236 -263 286
-284 41 -17 129 -18 176 -3 67 23 129 101 129 164 0 20 -41 70 -174 213 -95
103 -188 204 -206 225 l-32 37 154 159 c86 87 167 178 182 203 53 91 44 180
-24 242 -40 36 -77 50 -165 61 l-51 6 -214 -247 -215 -247 -5 204 c-6 231 -10
245 -81 273 -40 16 -185 20 -259 7z"/>
<path d="M5350 4831 l-35 -6 0 -600 c0 -578 1 -601 20 -632 29 -49 75 -66 175
-66 47 -1 107 3 133 7 l48 7 -3 607 c-3 682 1 644 -79 676 -40 16 -185 20
-259 7z"/>
<path d="M6070 4831 c-40 -12 -83 -37 -103 -59 -17 -18 -17 -54 -15 -583 3
-626 2 -610 70 -645 36 -18 148 -23 242 -10 l59 8 -5 389 c-3 214 -4 388 -3
387 2 -2 19 -41 38 -88 19 -47 94 -205 166 -351 149 -304 168 -329 268 -349
86 -18 229 -8 287 19 l46 23 0 579 c0 656 2 635 -72 669 -45 21 -149 26 -242
14 l-47 -7 3 -397 3 -396 -37 87 c-20 48 -97 211 -171 361 -146 298 -159 316
-249 343 -54 16 -194 19 -238 6z"/>
<path d="M11119 4807 c-58 -39 -74 -157 -34 -253 l14 -34 160 0 160 0 3 -452
c3 -453 3 -453 26 -485 12 -18 39 -37 60 -44 41 -14 171 -17 245 -5 l47 7 0
490 0 489 139 0 c127 0 141 2 172 23 58 39 72 148 32 249 l-15 38 -488 0 -487
0 -34 -23z"/>
<path d="M10132 4803 c-43 -21 -79 -65 -92 -113 -7 -26 -10 -214 -8 -552 3
-489 4 -515 23 -545 29 -49 75 -66 175 -66 47 -1 106 3 133 7 l47 7 0 225 0
224 205 0 c225 0 248 5 275 56 22 39 19 170 -3 212 l-18 32 -229 0 -230 0 0
115 0 115 240 0 c254 0 277 4 306 48 25 37 29 129 10 195 l-17 57 -392 0
c-340 0 -396 -3 -425 -17z"/>
</g>
                    </svg>